<svg width="1722" height="1696" viewBox="0 0 1722 1696" fill="none" xmlns="http://www.w3.org/2000/svg">
<path d="M25.1719 27.3809C-9.16469 62.9375 -8.1757 119.597 27.3809 153.934L1569.65 1643.28C1605.2 1677.62 1661.86 1676.63 1696.2 1641.07C1730.53 1605.52 1729.55 1548.86 1693.99 1514.52L151.725 25.1719C116.168 -9.16468 59.5085 -8.17572 25.1719 27.3809Z" fill="white"/>
<path d="M1668.9 26.286C1703.85 61.238 1703.85 117.906 1668.9 152.858L152.858 1668.9C117.906 1703.85 61.238 1703.85 26.2861 1668.9C-8.6658 1633.94 -8.6658 1577.27 26.2861 1542.32L1542.32 26.2861C1577.27 -8.66585 1633.94 -8.66589 1668.9 26.286Z" fill="white"/>
</svg>
