<svg width="735" height="813" viewBox="0 0 735 813" fill="none" xmlns="http://www.w3.org/2000/svg">
<path d="M-774 58.0714C-774 25.9995 -748.015 0 -715.962 0H676.961C709.015 0 735 25.9995 735 58.0714C735 90.1434 709.015 116.143 676.961 116.143H-715.961C-748.015 116.143 -774 90.1434 -774 58.0714Z" fill="black"/>
<path d="M-774 406.5C-774 374.428 -748.015 348.429 -715.962 348.429H676.961C709.015 348.429 735 374.428 735 406.5C735 438.572 709.015 464.571 676.961 464.571H-715.961C-748.015 464.571 -774 438.572 -774 406.5Z" fill="black"/>
<path d="M-774 754.929C-774 722.857 -748.015 696.857 -715.962 696.857H676.961C709.015 696.857 735 722.857 735 754.929C735 787.001 709.015 813 676.961 813H-715.961C-748.015 813 -774 787.001 -774 754.929Z" fill="black"/>
</svg>
