<svg width="3400" height="1831" viewBox="0 0 3400 1831" fill="none" xmlns="http://www.w3.org/2000/svg">
<path d="M0 130.786C0 58.5548 58.5474 0 130.769 0H3269.23C3341.45 0 3400 58.5548 3400 130.786C3400 203.017 3341.45 261.571 3269.23 261.571H130.769C58.5475 261.571 0 203.017 0 130.786Z" fill="black"/>
<path d="M0 915.5C0 843.269 58.5474 784.714 130.769 784.714H3269.23C3341.45 784.714 3400 843.269 3400 915.5C3400 987.731 3341.45 1046.29 3269.23 1046.29H130.769C58.5475 1046.29 0 987.731 0 915.5Z" fill="black"/>
<path d="M0 1700.21C0 1627.98 58.5474 1569.43 130.769 1569.43H3269.23C3341.45 1569.43 3400 1627.98 3400 1700.21C3400 1772.45 3341.45 1831 3269.23 1831H130.769C58.5475 1831 0 1772.45 0 1700.21Z" fill="black"/>
</svg>
