<svg width="39" height="21" viewBox="0 0 39 21" fill="none" xmlns="http://www.w3.org/2000/svg">
<path d="M0 1.5C0 0.671573 0.671573 0 1.5 0H37.5C38.3284 0 39 0.671573 39 1.5C39 2.32843 38.3284 3 37.5 3H1.5C0.671574 3 0 2.32843 0 1.5Z" fill="black"/>
<path d="M0 10.5C0 9.67157 0.671573 9 1.5 9H37.5C38.3284 9 39 9.67157 39 10.5C39 11.3284 38.3284 12 37.5 12H1.5C0.671574 12 0 11.3284 0 10.5Z" fill="black"/>
<path d="M0 19.5C0 18.6716 0.671573 18 1.5 18H37.5C38.3284 18 39 18.6716 39 19.5C39 20.3284 38.3284 21 37.5 21H1.5C0.671574 21 0 20.3284 0 19.5Z" fill="black"/>
</svg>
