<svg xmlns="http://www.w3.org/2000/svg" viewBox="0 0 163.1 221.97"><defs><style>.cls-1,.cls-2,.cls-4{fill:none;}.cls-2{stroke:#000;stroke-width:5px;}.cls-3{stroke:#171616;stroke-miterlimit:10;}.cls-4{stroke:#fff;stroke-linecap:round;stroke-linejoin:round;stroke-width:2px;}</style></defs><title>Asset 1</title><g id="Layer_2" data-name="Layer 2"><g id="Layer_3" data-name="Layer 3"><polygon class="cls-1" points="26.25 91.42 78.7 61.16 78.77 9.09 6 49.47 6 148.57 26.25 136.89 26.25 91.42"/><polygon class="cls-1" points="9 153.77 29.25 165.46 49.49 153.79 29.25 142.09 9 153.77"/><polygon class="cls-1" points="84.69 64.63 32.25 94.89 32.25 136.89 52.49 148.59 52.49 106.6 104.99 76.29 105 19.14 84.77 7.46 84.69 64.63"/><path d="M84.77.53a4,4,0,0,0-5.38,1.36L0,45.94V153.77a3.29,3.29,0,0,0,.09.71l.06.19a3,3,0,0,0,.21.49l.09.17a3.15,3.15,0,0,0,.41.55h0a2.61,2.61,0,0,0,.56.43l.06.05,26.25,15.15a3,3,0,0,0,1.5.41,3,3,0,0,0,1.5-.41L57,156.39l.06,0a3.55,3.55,0,0,0,.57-.43h0a2.86,2.86,0,0,0,.42-.55s.06-.11.1-.17a3,3,0,0,0,.2-.49l.06-.19a3.21,3.21,0,0,0,.09-.71h0V110.06L111,79.76V15.67ZM6,49.47,78.77,9.09,78.7,61.16,26.25,91.43v45.46L6,148.57Zm23.25,116L9,153.77l20.25-11.69,20.24,11.71ZM105,76.29,52.49,106.6v42l-20.24-11.7v-42L84.69,64.63l.08-57.17L105,19.14Z"/><path class="cls-2" d="M47.29,158.8c95.42,11.64,19.5,90,68.48,48.83s56.24-14.2,29.47-40.32"/><path class="cls-3" d="M151.37,165.94,134,129.15a12.18,12.18,0,0,0,.12-11.25c-3.22-6.17-11.37-8.28-18.18-4.72s-9.72,11.46-6.49,17.63a12.2,12.2,0,0,0,9.33,6.31L142,171.53Z"/><path class="cls-4" d="M111.13,128.55c1.28,3.53,5.13,5.57,5.13,5.57"/></g></g></svg>